<?xml version="1.0" encoding="UTF-8" standalone="no"?>
<svg
   width="39.894"
   height="72.58"
   viewBox="0 0 10.555 19.204"
   xml:space="preserve"
   version="1.1"
   id="svg18"
   sodipodi:docname="black_soda.svg"
   inkscape:version="1.2.2 (b0a8486541, 2022-12-01)"
   xmlns:inkscape="http://www.inkscape.org/namespaces/inkscape"
   xmlns:sodipodi="http://sodipodi.sourceforge.net/DTD/sodipodi-0.dtd"
   xmlns:xlink="http://www.w3.org/1999/xlink"
   xmlns="http://www.w3.org/2000/svg"
   xmlns:svg="http://www.w3.org/2000/svg"><sodipodi:namedview
     id="namedview20"
     pagecolor="#ffffff"
     bordercolor="#000000"
     borderopacity="0.25"
     inkscape:showpageshadow="2"
     inkscape:pageopacity="0.0"
     inkscape:pagecheckerboard="0"
     inkscape:deskcolor="#d1d1d1"
     showgrid="false"
     inkscape:zoom="11.313709"
     inkscape:cx="21.38998"
     inkscape:cy="36.769553"
     inkscape:window-width="1920"
     inkscape:window-height="1008"
     inkscape:window-x="0"
     inkscape:window-y="0"
     inkscape:window-maximized="1"
     inkscape:current-layer="svg18" /><defs
     id="defs8"><linearGradient
       xlink:href="#a"
       id="b"
       x1="62.827"
       y1="118.982"
       x2="62.827"
       y2="157.203"
       gradientUnits="userSpaceOnUse" /><linearGradient
       id="a"><stop
         style="stop-color:#52565e;stop-opacity:1"
         offset="0"
         id="stop3" /><stop
         style="stop-color:#282b2d;stop-opacity:1"
         offset="1"
         id="stop5" /></linearGradient><inkscape:path-effect
       effect="fillet_chamfer"
       id="path-effect7"
       is_visible="true"
       lpeversion="1"
       nodesatellites_param="F,0,0,1,0,0,0,1 @ F,0,0,1,0,0,0,1 @ F,0,0,1,0,0,0,1 @ F,0,0,1,0,0,0,1 @ F,0,0,1,0,0,0,1 @ F,0,0,1,0,0,0,1 @ F,0,0,1,0,0,0,1 @ F,0,0,1,0,0,0,1 @ F,0,0,1,0,0,0,1 @ F,0,0,1,0,0,0,1 @ F,0,0,1,0,0,0,1 @ F,0,0,1,0,0,0,1 @ F,0,0,1,0,0,0,1 @ F,0,0,1,0,0,0,1 @ F,0,0,1,0,0,0,1 @ F,0,0,1,0,0,0,1 @ F,0,0,1,0,0,0,1 @ F,0,0,1,0,0,0,1 @ F,0,0,1,0,0,0,1 @ F,0,0,1,0,0,0,1 | F,0,0,1,0,0,0,1 @ F,0,0,1,0,0,0,1 @ F,0,0,1,0,0,0,1 @ F,0,0,1,0,0,0,1 | F,0,0,1,0,0,0,1 @ F,0,0,1,0,0,0,1 @ F,0,0,1,0,0,0,1 @ F,0,0,1,0,0,0,1 | F,0,0,1,0,1.2651371,0,1 @ F,0,0,1,0,1.5646926,0,1 @ F,0,0,1,0,1.5537369,0,1"
       radius="0"
       unit="px"
       method="auto"
       mode="F"
       chamfer_steps="1"
       flexible="false"
       use_knot_distance="true"
       apply_no_radius="true"
       apply_with_radius="true"
       only_selected="false"
       hide_knots="false" /></defs><path
     style="fill:url(#b);stroke:#1a1c1d;stroke-width:2.4318;stroke-linecap:square;stroke-dasharray:none;stroke-opacity:1"
     d="M53.436 119.837h19c-.013 1.276 1.302 2.319 2.117 2.934l-.001 33.686H51.32v-33.632c.875-.525 1.908-1.726 2.115-2.988z"
     transform="matrix(.41122 0 0 .41122 -20.602 -47.604)"
     id="path10" /><path
     style="fill:#b7c1c3;stroke:#6c6c6c;stroke-width:1.2159;stroke-linecap:square;stroke-dasharray:none;fill-opacity:1;stroke-opacity:1"
     d="M53.028 116.371h20.057v1.713H53.028Z"
     transform="matrix(.41122 0 0 .41122 -20.602 -47.604)"
     id="path12" /><path
     style="fill:#b7c1c3;stroke:#6c6c6c;stroke-width:1.2159;stroke-linecap:square;stroke-dasharray:none;stroke-opacity:1;fill-opacity:1"
     d="m50.713 158.163 24.44-.001c.001 1.642-.125 3.648-1.946 3.692H51.929c-1.128-.003-1.248-1.825-1.216-3.691z"
     transform="matrix(.41122 0 0 .41122 -20.602 -47.604)"
     id="path14" /><g
     id="g7"
     transform="matrix(0.21428532,0,0,0.15395934,1.9100409,5.334984)"><path
       id="path11"
       style="display:none;fill:#ffffff;fill-opacity:1;stroke:#dbdbdb;stroke-width:1.18123;stroke-dasharray:none;stroke-opacity:1"
       d="M 29.632684,36.952697 C 28.601192,35.517103 26.921097,35.420211 25.68878,36.725251 L 8.9416993,13.416157 c 0.758999,-1.689674 0.620698,-3.8133832 -0.334964,-5.1436002 -1.14601,-1.59513 -3.0624495,-1.513923 -4.2803799,0.181377 -0.459308,0.639302 -0.7722014,1.450471 -0.895001,2.3202672 -0.6250176,0.17094 -1.2078987,0.606533 -1.6672508,1.245953 -1.21786388,1.695186 -1.27612338,4.362344 -0.1301262,5.957299 0.9404822,1.308799 2.4354938,1.51837 3.6431743,0.510701 L 22.146227,41.967043 c -0.554848,1.619667 -0.350222,3.4881 0.513698,4.69055 1.146048,1.594874 3.06234,1.513551 4.280192,-0.181641 0.458462,-0.641645 0.769875,-1.454797 0.89065,-2.325795 0.6261,-0.168042 1.210636,-0.60166 1.67179,-1.24016 1.217865,-1.695187 1.276124,-4.362345 0.130127,-5.9573 z"
       sodipodi:nodetypes="scccccccccccccs"
       inkscape:label="Bone" /><path
       id="path2"
       style="fill:#ffffff;stroke:#7a8385;stroke-width:1.93437;stroke-dasharray:none;stroke-opacity:1"
       d="M 19.843585,0.96738472 C 9.4184647,0.96745947 0.96725375,9.4186707 0.96717935,19.843791 0.96724069,25.78791 3.7671177,31.384792 8.5238396,34.94936 v 7.43367 h 3.7930584 v -5.228116 c 0.751147,0.326637 1.522759,0.604038 2.309941,0.830442 v 4.397674 h 3.793058 v -3.716577 c 0.473717,0.03582 0.948618,0.05375 1.423688,0.05374 0.414265,2.3e-5 0.828419,-0.01359 1.241788,-0.04082 v 3.703658 h 3.793058 v -4.346514 c 0.850193,-0.235281 1.682848,-0.529871 2.491842,-0.881602 v 5.228632 h 3.793058 V 34.94936 C 35.920053,31.384792 38.71993,25.78791 38.719992,19.843791 38.719918,9.4186702 30.268706,0.96745873 19.843585,0.96738472 Z M 12.567529,11.766748 c 2.557199,0 4.630218,2.073019 4.630218,4.630218 -1e-6,2.557198 -2.07302,4.630217 -4.630218,4.630217 -2.557198,0 -4.6302175,-2.073019 -4.6302181,-4.630217 0,-2.557199 2.0730191,-4.630218 4.6302181,-4.630218 z m 14.552113,0 c 2.557199,0 4.630218,2.073019 4.630218,4.630218 -1e-6,2.557198 -2.07302,4.630217 -4.630218,4.630217 -2.557198,0 -4.630217,-2.073019 -4.630218,-4.630217 0,-2.557199 2.073019,-4.630218 4.630218,-4.630218 z m -6.511251,13.858196 2.258058,2.975461 a 0.77681158,0.77681158 116.40269 0 1 -0.618798,1.246413 h -4.819087 a 0.7713726,0.7713726 63.59731 0 1 -0.614465,-1.237686 l 2.26468,-2.984188 a 0.96010426,0.96010426 -180 0 1 1.529612,0 z"
       transform="matrix(0.51760708,0,0,0.72042119,5.3621505,11.849479)" /></g></svg>
