<?xml version="1.0" encoding="UTF-8" standalone="no"?>
<svg
   width="113.38583"
   height="113.38583"
   viewBox="0 0 30.000001 29.999821"
   xml:space="preserve"
   version="1.1"
   id="svg4"
   sodipodi:docname="22lr.svg"
   inkscape:version="1.4.4 (dcaf3e7, 2026-05-05)"
   xmlns:inkscape="http://www.inkscape.org/namespaces/inkscape"
   xmlns:sodipodi="http://sodipodi.sourceforge.net/DTD/sodipodi-0.dtd"
   xmlns="http://www.w3.org/2000/svg"
   xmlns:svg="http://www.w3.org/2000/svg"><defs
     id="defs4"><inkscape:path-effect
       effect="fillet_chamfer"
       id="path-effect14"
       is_visible="true"
       lpeversion="1"
       nodesatellites_param="IC,0,0,1,0,2.6458334,0,1 @ IC,0,0,1,0,2.6458334,0,1 @ IC,0,0,1,0,2.6458334,0,1 @ IC,0,0,1,0,2.6458334,0,1"
       radius="10"
       unit="px"
       method="auto"
       mode="IC"
       chamfer_steps="1"
       flexible="false"
       use_knot_distance="true"
       apply_no_radius="true"
       apply_with_radius="true"
       only_selected="false"
       hide_knots="false" /></defs><sodipodi:namedview
     id="namedview4"
     pagecolor="#ffffff"
     bordercolor="#000000"
     borderopacity="0.25"
     inkscape:showpageshadow="2"
     inkscape:pageopacity="0.0"
     inkscape:pagecheckerboard="0"
     inkscape:deskcolor="#d1d1d1"
     inkscape:document-units="mm"
     inkscape:zoom="1.8872457"
     inkscape:cx="6.0935363"
     inkscape:cy="170.88395"
     inkscape:window-width="1920"
     inkscape:window-height="1009"
     inkscape:window-x="-8"
     inkscape:window-y="-8"
     inkscape:window-maximized="1"
     inkscape:current-layer="svg4" /><g
     id="g1"
     transform="matrix(1.5000001,0,0,1.5000001,0,2.9325006e-5)"><path
       style="baseline-shift:baseline;display:inline;overflow:visible;fill:#f9f9f9;fill-opacity:1;stroke:#939f9f;stroke-width:2;stroke-dasharray:none;stroke-opacity:1;enable-background:accumulate;stop-color:#000000"
       d="M 3.6458334,0.99994045 H 16.354166 L 18.999999,3.6457738 V 16.354107 l -2.645833,2.645833 -12.7083326,0 L 1,16.354107 V 3.6457739 Z"
       id="path5"
       inkscape:original-d="M 1,0.99994045 H 18.999999 V 18.99994 H 1 Z"
       inkscape:path-effect="#path-effect14" /><g
       style="stroke:#939f9f;stroke-width:0.855337;stroke-dasharray:none;stroke-opacity:1"
       transform="matrix(1.16913,0,0,1.16913,1.232,1.2319991)"
       id="g4"><circle
         style="fill:none;fill-opacity:1;stroke:#939f9f;stroke-opacity:1"
         cx="2.95"
         cy="2.95"
         r="1"
         id="circle1" /><circle
         style="fill:none;fill-opacity:1;stroke:#939f9f;stroke-opacity:1"
         cx="12.05"
         cy="2.95"
         r="1"
         id="circle2" /><circle
         style="fill:none;fill-opacity:1;stroke:#939f9f;stroke-opacity:1"
         cx="2.95"
         cy="12.05"
         r="1"
         id="circle3" /><circle
         style="fill:none;fill-opacity:1;stroke:#939f9f;stroke-opacity:1"
         cx="12.05"
         cy="12.05"
         r="1"
         id="circle4" /></g><path
       d="m 4.721743,11.551527 h 1.3959778 v 1.165479 H 4.721743 Z m 5.978356,-2.5598344 q 0,0.6590314 -0.560014,1.1395084 -0.1704394,0.147714 -0.3717199,0.295428 l -1.6686805,1.202813 h 2.6004144 v 1.087564 H 6.507296 V 11.24149 L 9.3008748,9.2238145 V 8.8358626 q 0,-0.4658671 -0.465867,-0.4658671 H 6.6615029 V 7.2824314 h 2.4835419 q 0.8164847,0 1.1800882,0.3733429 0.373343,0.3652268 0.373343,1.1800883 z m 4.577509,0 q 0,0.6590314 -0.558391,1.1395084 -0.17044,0.147714 -0.373343,0.295428 l -1.667058,1.202813 h 2.598792 v 1.087564 h -4.19118 V 11.24149 L 13.880007,9.2238145 V 8.8358626 q 0,-0.4658671 -0.465867,-0.4658671 H 11.240635 V 7.2824314 h 2.483542 q 0.814861,0 1.180088,0.3733429 0.373343,0.3652268 0.373343,1.1800883 z"
       style="font-size:4.78127px;font-family:'Russo One';-inkscape-font-specification:'Russo One, Normal';fill:#939f9f;fill-opacity:1;stroke:none;stroke-width:0.264583"
       aria-label=".22"
       id="path4" /></g></svg>
