<?xml version="1.0" encoding="UTF-8" standalone="no"?>
<svg
   width="20mm"
   height="75.591"
   viewBox="0 0 20 20"
   xml:space="preserve"
   version="1.1"
   id="svg4"
   sodipodi:docname="45acp.svg"
   inkscape:version="1.4.3 (0d15f75, 2025-12-25)"
   xmlns:inkscape="http://www.inkscape.org/namespaces/inkscape"
   xmlns:sodipodi="http://sodipodi.sourceforge.net/DTD/sodipodi-0.dtd"
   xmlns="http://www.w3.org/2000/svg"
   xmlns:svg="http://www.w3.org/2000/svg"><defs
     id="defs4" /><sodipodi:namedview
     id="namedview4"
     pagecolor="#ffffff"
     bordercolor="#000000"
     borderopacity="0.25"
     inkscape:showpageshadow="2"
     inkscape:pageopacity="0.0"
     inkscape:pagecheckerboard="0"
     inkscape:deskcolor="#d1d1d1"
     inkscape:document-units="mm"
     inkscape:zoom="5.3379368"
     inkscape:cx="46.085221"
     inkscape:cy="45.242199"
     inkscape:window-width="1920"
     inkscape:window-height="1009"
     inkscape:window-x="-8"
     inkscape:window-y="-8"
     inkscape:window-maximized="1"
     inkscape:current-layer="svg4" /><path
     d="M.643-.316h8.19c.731 0 1.323.593 1.323 1.323v8.19c0 .73-.592 1.323-1.323 1.323H.643c-.73 0-1.323-.592-1.323-1.323v-8.19c0-.73.593-1.323 1.323-1.323z"
     style="fill:#791390;fill-opacity:1;stroke:#480e64;stroke-width:1.48518;stroke-linecap:round;stroke-linejoin:miter;stroke-dasharray:none;stroke-opacity:1"
     transform="matrix(1.62323 0 0 1.62323 2.308 1.718)"
     id="path1" /><g
     style="stroke:#480e64;stroke-width:0.855337;stroke-dasharray:none;stroke-opacity:1"
     transform="matrix(1.16913 0 0 1.16913 1.232 1.232)"
     id="g4"><circle
       style="fill:none;fill-opacity:1;stroke:#480e64;stroke-opacity:1"
       cx="2.95"
       cy="2.95"
       r="1"
       id="circle1" /><circle
       style="fill:none;fill-opacity:1;stroke:#480e64;stroke-opacity:1"
       cx="12.05"
       cy="2.95"
       r="1"
       id="circle2" /><circle
       style="fill:none;fill-opacity:1;stroke:#480e64;stroke-opacity:1"
       cx="2.95"
       cy="12.05"
       r="1"
       id="circle3" /><circle
       style="fill:none;fill-opacity:1;stroke:#480e64;stroke-opacity:1"
       cx="12.05"
       cy="12.05"
       r="1"
       id="circle4" /></g><text
     xml:space="preserve"
     style="font-style:normal;font-variant:normal;font-weight:normal;font-stretch:normal;font-size:8.46667px;font-family:'Russo One';-inkscape-font-specification:'Russo One, Normal';font-variant-ligatures:normal;font-variant-caps:normal;font-variant-numeric:normal;font-variant-east-asian:normal;writing-mode:lr-tb;direction:ltr;display:none;fill:#480e64;fill-opacity:1;stroke:none;stroke-width:0.264583;stroke-opacity:1"
     x="3.6500001"
     y="12.921003"
     id="text4"><tspan
       sodipodi:role="line"
       id="tspan4"
       style="font-style:normal;font-variant:normal;font-weight:normal;font-stretch:normal;font-size:8.46667px;font-family:'Russo One';-inkscape-font-specification:'Russo One, Normal';font-variant-ligatures:normal;font-variant-caps:normal;font-variant-numeric:normal;font-variant-east-asian:normal;fill:#480e64;fill-opacity:1;stroke:none;stroke-width:0.264583"
       x="3.6500001"
       y="12.921003">.45</tspan></text><path
     d="m 3.9040002,11.651003 h 1.5240006 v 1.27 H 3.9040002 Z m 5.0800001,0.08467 H 5.8513324 V 10.550336 L 7.8833332,6.9943343 h 1.693334 L 7.5446664,10.550336 H 8.9840003 V 9.2803352 h 1.5240007 v 1.2700008 h 0.592667 v 1.185334 h -0.592667 v 1.185333 H 8.9840003 Z m 5.5033317,1.27 q -1.413934,0 -3.132668,-0.169333 v -1.143001 q 1.871134,0.127 2.794001,0.127 0.194734,0 0.304801,-0.110066 0.118533,-0.118534 0.118533,-0.313267 v -0.423334 q 0,-0.508 -0.508,-0.508 H 11.608664 V 6.9943343 h 4.064002 v 1.1853338 h -2.540001 v 1.1006671 h 1.354667 q 0.829734,0 1.219201,0.3810002 0.389466,0.3725336 0.389466,1.1430006 v 0.592667 q 0,0.829733 -0.389466,1.2192 -0.389467,0.389467 -1.219201,0.389467 z"
     id="text5"
     style="font-size:8.46667px;font-family:'Russo One';-inkscape-font-specification:'Russo One, Normal';fill:#480e64;stroke-width:0.264583"
     aria-label=".45" /></svg>
