<svg xmlns="http://www.w3.org/2000/svg" width="1400" height="780" viewBox="0 0 370.418 206.377"><path d="M1.14 2.84h35.138a2.679 2.685 0 0 1 2.679 2.686v55.516a2.679 2.685 0 0 1-2.679 2.686H1.14a2.679 2.685 0 0 1-2.678-2.686V5.526A2.679 2.685 0 0 1 1.14 2.84" style="baseline-shift:baseline;display:inline;overflow:visible;opacity:1;fill:#181716;fill-opacity:1;stroke:none;stroke-width:1.01359472;stroke-dasharray:none;stop-color:#000;stop-opacity:1" transform="matrix(0 5.09633 -6.08371 0 387.7 7.84)"/><path d="M2.492 4.336h32.435a2.473 2.455 0 0 1 2.472 2.455V57.55a2.473 2.455 0 0 1-2.472 2.455H2.492A2.473 2.455 0 0 1 .019 57.55V6.79a2.473 2.455 0 0 1 2.473-2.455" style="baseline-shift:baseline;display:inline;overflow:visible;opacity:1;vector-effect:none;fill:#333b3e;stroke:none;stroke-width:.931148;stop-color:#000;stop-opacity:1;fill-opacity:1" transform="matrix(0 5.09633 -6.08371 0 387.7 7.84)"/></svg>