<?xml version="1.0" encoding="UTF-8" standalone="no"?>
<svg
   xml:space="preserve"
   width="113.386"
   height="113.386"
   viewBox="0 0 30 30"
   version="1.1"
   id="svg1539"
   sodipodi:docname="c45.svg"
   inkscape:version="1.2.2 (b0a8486541, 2022-12-01)"
   xmlns:inkscape="http://www.inkscape.org/namespaces/inkscape"
   xmlns:sodipodi="http://sodipodi.sourceforge.net/DTD/sodipodi-0.dtd"
   xmlns="http://www.w3.org/2000/svg"
   xmlns:svg="http://www.w3.org/2000/svg"><defs
     id="defs1543" /><sodipodi:namedview
     id="namedview1541"
     pagecolor="#ffffff"
     bordercolor="#000000"
     borderopacity="0.25"
     inkscape:showpageshadow="2"
     inkscape:pageopacity="0.0"
     inkscape:pagecheckerboard="0"
     inkscape:deskcolor="#d1d1d1"
     showgrid="false"
     inkscape:zoom="7.390683"
     inkscape:cx="73.200271"
     inkscape:cy="56.693001"
     inkscape:window-width="1920"
     inkscape:window-height="1008"
     inkscape:window-x="0"
     inkscape:window-y="0"
     inkscape:window-maximized="1"
     inkscape:current-layer="svg1539" /><path
     d="M3.646 1h12.708A2.646 2.646 45 0 1 19 3.646v12.708A2.646 2.646 135 0 1 16.354 19H3.646A2.646 2.646 45 0 1 1 16.354V3.646A2.646 2.646 135 0 1 3.646 1Z"
     style="baseline-shift:baseline;display:inline;overflow:visible;fill:#17cf17;fill-opacity:1;stroke:#1e730d;stroke-width:2;stroke-dasharray:none;stroke-opacity:1;stop-color:#000"
     transform="scale(1.5)"
     id="path1525" /><g
     style="stroke:#1e730d;stroke-width:.862004;stroke-dasharray:none;stroke-opacity:1"
     transform="translate(6.802 8.29)scale(1.74013)"
     id="g1535"><circle
       cx="-.03"
       cy="-.885"
       r=".862"
       style="fill:none;fill-opacity:1;stroke:#1e730d;stroke-opacity:1"
       id="circle1527" /><circle
       cx="-.03"
       cy="8.597"
       r=".862"
       style="fill:none;fill-opacity:1;stroke:#1e730d;stroke-opacity:1"
       id="circle1529" /><circle
       cx="9.452"
       cy="8.597"
       r=".862"
       style="fill:none;fill-opacity:1;stroke:#1e730d;stroke-opacity:1"
       id="circle1531" /><circle
       cx="9.452"
       cy="-.885"
       r=".862"
       style="fill:none;fill-opacity:1;stroke:#1e730d;stroke-opacity:1"
       id="circle1533" /></g><g
     aria-label="C45"
     id="text350"
     style="font-size:11.2889px;font-family:'Russo One';-inkscape-font-specification:'Russo One, Normal';opacity:0.985894;fill:#1e730d;stroke-width:5.854;stroke-miterlimit:0.1"><path
       d="m 11.105327,18.781781 q -2.5174247,0.225778 -4.176893,0.225778 -1.1063122,0 -1.6256017,-0.519289 Q 4.7835429,17.968981 4.7835429,16.862668 V 13.25022 q 0,-1.185334 0.5305783,-1.715913 Q 5.8559885,10.99244 7.041323,10.99244 h 4.064004 v 1.580446 H 7.492879 q -0.677334,0 -0.677334,0.677334 v 3.612448 q 0,0.259645 0.1467557,0.41769 0.1580446,0.146755 0.3951115,0.146755 0.2370669,0 0.5192894,0 0.2822225,-0.01129 0.5870228,-0.02258 0.3048004,-0.01129 0.6096007,-0.02258 0.3160892,-0.01129 0.8015119,-0.04516 0.496712,-0.03387 1.23049,-0.07902 z"
       id="path1989" /><path
       d="m 15.733786,17.314224 h -4.176893 v -1.580446 l 2.709336,-4.741338 h 2.25778 l -2.709336,4.741338 h 1.919113 v -1.693335 h 2.032002 v 1.693335 h 0.790223 v 1.580446 h -0.790223 v 1.580446 h -2.032002 z"
       id="path1991" /><path
       d="m 23.071566,19.007559 q -1.885246,0 -4.176893,-0.225778 V 17.25778 q 2.494847,0.169333 3.725337,0.169333 0.259645,0 0.406401,-0.146755 0.158044,-0.158045 0.158044,-0.41769 v -0.564445 q 0,-0.677334 -0.677334,-0.677334 H 19.23334 V 10.99244 h 5.418672 v 1.580446 h -3.38667 v 1.467557 h 1.806224 q 1.106313,0 1.625602,0.508001 0.519289,0.496711 0.519289,1.524001 v 0.790223 q 0,1.106313 -0.519289,1.625602 -0.519289,0.519289 -1.625602,0.519289 z"
       id="path1993" /></g></svg>
