<svg xmlns="http://www.w3.org/2000/svg" xmlns:xlink="http://www.w3.org/1999/xlink" xml:space="preserve" width="151.506" height="19.125" viewBox="0 0 40.086 5.06"><defs><linearGradient xlink:href="#a" id="c" x1="0" x2="47.994" y1="8.245" y2="8.245" gradientTransform="matrix(1.15805 0 0 .68082 -2.08 -7.603)" gradientUnits="userSpaceOnUse"/><linearGradient id="a"><stop offset="0" style="stop-color:#7d3c00;stop-opacity:1"/><stop offset="1" style="stop-color:#582400;stop-opacity:1"/></linearGradient><linearGradient id="b"><stop offset="0" style="stop-color:#533c3c;stop-opacity:1"/><stop offset="1" style="stop-color:#483838;stop-opacity:1"/></linearGradient><linearGradient xlink:href="#b" id="d" x1="14.437" x2="68.744" y1="11.11" y2="10.715" gradientTransform="translate(-10.236 -17.475)" gradientUnits="userSpaceOnUse"/></defs><g style="opacity:1"><path d="M-16.808-7.155C-4.67-4.701 8.216-2.85 8.216-2.85s-.114 3.934 0 3.8c0 0-17.403-1.717-25.024-4.305-1.687.11-1.904-3.673 0-3.8z" style="opacity:1;fill:url(#c);stroke:#430f00;stroke-width:2;stroke-dasharray:none;stroke-opacity:1" transform="translate(7.184 3.06)scale(.375)"/><path d="M3.717-5.259 3.89.183s62.447 4.49 85.926.53c3.562-.16 2.842-6.415 0-6-28.787 4.671-86.1.028-86.1.028Z" style="baseline-shift:baseline;display:inline;overflow:visible;opacity:1;fill:url(#d);stroke:#2f1111;stroke-width:2.305;stroke-dasharray:none;stroke-opacity:1;stop-color:#000;stop-opacity:1" transform="translate(9.702 3.346)scale(.32538)"/><path d="M7.379 3.257h2.456v10.762H7.379z" style="fill:#272727;fill-opacity:1;stroke:#000;stroke-width:2.00001;stroke-dasharray:none;stroke-opacity:1" transform="translate(7.229 -.572)scale(.375)"/></g></svg>